<svg viewBox="0 0 22.99 22.98" xmlns="http://www.w3.org/2000/svg" data-name="レイヤー 1" id="eee5c622-a929-466f-89eb-88e663e67723"><defs></defs><path transform="translate(-313.09 -341.85)" d="M330.88,364.83a8.51,8.51,0,0,1-3.88-1.06,30.68,30.68,0,0,1-12.85-12.84c-2.31-4.45-.23-7.05.46-7.74l.76-.76a1.68,1.68,0,0,1,2.61.09,36.6,36.6,0,0,1,2.69,3.82,2.41,2.41,0,0,1-.37,3l-1.48,1.48a21.6,21.6,0,0,0,3.58,4.71,21.33,21.33,0,0,0,4.71,3.59l1.49-1.49a2.42,2.42,0,0,1,3-.36,38.07,38.07,0,0,1,3.82,2.68,1.87,1.87,0,0,1,.67,1.3,1.79,1.79,0,0,1-.58,1.31l-.76.76a5.43,5.43,0,0,1-3.86,1.52Z" class="b6abcb6e-d80e-4122-857a-47d4e29bba78"></path></svg>