<?xml version="1.0" encoding="UTF-8"?> <svg xmlns="http://www.w3.org/2000/svg" id="a930f066-7e39-401b-bb10-c695b22d9cb0" data-name="レイヤー 1" viewBox="0 0 36.3 37.25"><defs><style>.be8eef2d-f501-42c4-a947-5a49f1fe6ace,.e5ac4e6b-ea29-4e54-bceb-a56155c3f34d{fill:#18783a;}.e5ac4e6b-ea29-4e54-bceb-a56155c3f34d{fill-rule:evenodd;}</style></defs><path class="be8eef2d-f501-42c4-a947-5a49f1fe6ace" d="M265.14,583.48a3.16,3.16,0,0,1-1,1.34l-.39.29a3,3,0,0,1-2,.61,1.14,1.14,0,0,1-.77-.41l-15.48-20.93c-2,1-5.07,1.21-8.37-2.87a.15.15,0,0,1,0-.06,17.33,17.33,0,0,1-3.46-8.38.5.5,0,0,1,0-.24.57.57,0,0,1,.46-.37.61.61,0,0,1,.59.23l1,1.31c.93,1.19,1.82,2.32,2.83,3.56l.1.13c.31.38.83,1,1.24,1.07a.37.37,0,0,0,.3-.11.43.43,0,0,0,.13-.19.71.71,0,0,0,0-.21,40.48,40.48,0,0,0-2.39-4c-.82-1.3-1.53-2.41-1.77-2.91l0,0c-.21-.39-.3-.64-.22-.87a.48.48,0,0,1,.14-.2c.39-.29.85,0,2.27,1.41l.12.11c.31.3.81.81,1.38,1.4a28.94,28.94,0,0,0,3.21,3,.49.49,0,0,0,.43,0,.45.45,0,0,0,.16-.22.32.32,0,0,0,0-.14c-.05-.19-.56-1.2-4.76-6.26a.62.62,0,0,1-.11-.6.6.6,0,0,1,.76-.37,18,18,0,0,1,7.43,5.26.18.18,0,0,1,.05.07c2,2.53,2.66,4.85,1.92,6.9h0a5.67,5.67,0,0,1-1.05,1.75L265,582.18A1.3,1.3,0,0,1,265.14,583.48Z" transform="translate(-233.63 -548.48)"></path><path class="e5ac4e6b-ea29-4e54-bceb-a56155c3f34d" d="M268.19,549.94c-2.78-2.25-8-.44-10.94,3.28a8,8,0,0,0-1,8.8l-17.07,19.7a1.28,1.28,0,0,0-.11,1.29,3.1,3.1,0,0,0,1,1.34l.39.3a3,3,0,0,0,2,.6,1.14,1.14,0,0,0,.77-.41l15.48-20.92a8.13,8.13,0,0,0,8.53-2.57C270.26,557.64,271,552.19,268.19,549.94Z" transform="translate(-233.63 -548.48)"></path></svg> 