<?xml version="1.0" encoding="UTF-8"?> <svg xmlns="http://www.w3.org/2000/svg" id="bd5843c9-7b43-441b-8f95-35cb955f5744" data-name="レイヤー 1" viewBox="0 0 2215.94 1558.04"><defs><style>.e8a1a9a3-c73f-489f-8ca3-41e32330eca9{fill:#979797;}</style></defs><path class="e8a1a9a3-c73f-489f-8ca3-41e32330eca9" d="M914.26,641.53c.92-2.3,1.83-4.59,2.67-7,7.34-20,11.55-40.37,12.39-58.41.31-5.66.31-11.39.15-17h2.83C951.41,586.64,990.33,611.33,914.26,641.53Z" transform="translate(-185.67 -153.34)"></path><path class="e8a1a9a3-c73f-489f-8ca3-41e32330eca9" d="M1776.55,643.44c-9.1-2.37-14.68-10.86-12.38-18.81s11.39-12.61,20.48-10.17,14.61,10.78,12.39,18.81S1785.65,645.81,1776.55,643.44Z" transform="translate(-185.67 -153.34)"></path><path class="e8a1a9a3-c73f-489f-8ca3-41e32330eca9" d="M1649.41,620c-5.88-3.21-9.4-9.25-8.18-15.44,0-.15.08-.23.15-.38,1.69-7.72,10.33-12.69,19.42-11,9.25,1.68,15.45,9.56,13.92,17.51s-10.32,13.07-19.57,11.39A18.16,18.16,0,0,1,1649.41,620Z" transform="translate(-185.67 -153.34)"></path><path class="e8a1a9a3-c73f-489f-8ca3-41e32330eca9" d="M879.55,478.69c8.87-1.07,16.9,4.74,17.81,12.84s-5.43,15.6-14.37,16.67-16.9-4.67-17.89-12.85S870.6,479.76,879.55,478.69Z" transform="translate(-185.67 -153.34)"></path><path class="e8a1a9a3-c73f-489f-8ca3-41e32330eca9" d="M727.56,521.73c-2.44-7.8,2.6-16.29,11.17-19s17.43,1.53,19.87,9.4-2.52,16.29-11.08,19S730,529.6,727.56,521.73Z" transform="translate(-185.67 -153.34)"></path><path class="e8a1a9a3-c73f-489f-8ca3-41e32330eca9" d="M245.08,1299.6c-7.42,0-11.69-.13-12-.14a9.55,9.55,0,0,1-9.23-10c.63-12.64,15.84-310.37,52.56-368C308,872,359,846.84,404.42,827.1c7.61-3.3,15.28-6.54,23-9.78,20.68-8.74,42.07-17.76,62-28.09,3.65-1.9,7.4-3.88,11-6a9.56,9.56,0,0,1,9.75,16.44c-3.89,2.3-7.95,4.45-11.93,6.53-20.62,10.68-42.35,19.85-63.37,28.72-7.63,3.22-15.24,6.43-22.78,9.71-44.77,19.47-90.88,42.23-119.53,87.12-27.2,42.66-44.09,257.29-49.06,348.73,6.3,0,15.32-.06,26.38-.43,40.8-1.33,119.08-7,184.9-29.61a9.56,9.56,0,0,1,6.23,18.08c-68.2,23.47-148.62,29.27-190.49,30.64C260,1299.51,251.41,1299.6,245.08,1299.6Z" transform="translate(-185.67 -153.34)"></path><path class="e8a1a9a3-c73f-489f-8ca3-41e32330eca9" d="M505.79,800.78a9.56,9.56,0,0,1-4.28-18.11c.74-.44,1.24-.73,1.76-1a9.55,9.55,0,0,1,8.59,17.07c-.8.47-1.29.76-1.81,1A9.58,9.58,0,0,1,505.79,800.78Z" transform="translate(-185.67 -153.34)"></path><path class="e8a1a9a3-c73f-489f-8ca3-41e32330eca9" d="M1054.44,919a9,9,0,0,1-7.28-3.63c-.12-.15-.56-.79-.67-.94-4.78-6.56-9.28-12.88-13.68-19.08-18.61-26.18-34.68-48.79-54.39-63.49a108.16,108.16,0,0,0-15.85-9.85c-12-6.34-25-11.14-38.77-16.22-10.87-4-22.1-8.13-33.64-13.31A9.56,9.56,0,1,1,898,775.08C908.92,780,919.85,784,930.4,787.9c14.41,5.3,28,10.31,41,17.2a126.32,126.32,0,0,1,18.46,11.5c22.1,16.47,39.79,41.36,58.52,67.72,4.35,6.12,8.8,12.38,13.41,18.69.08.1.5.71.57.81a9.67,9.67,0,0,1-7.93,15.22Z" transform="translate(-185.67 -153.34)"></path><path class="e8a1a9a3-c73f-489f-8ca3-41e32330eca9" d="M398.47,1532.19a70.08,70.08,0,0,1-13.1-1.17c-29.89-5.62-55.08-21.88-74.85-48.31C265.44,1422.43,261,1326.88,260.75,1299c-.08-3.63,0-5.68,0-5.68a9.56,9.56,0,0,1,19.1.76c0,.16-.06,1.78,0,4.62.18,18.9,3.28,115.47,45.95,172.54,16.82,22.48,38,36.27,63.08,41,99.48,18.76,372-250.86,468.61-356.31a9.56,9.56,0,0,1,14.1,12.91C857.6,1184.14,537.17,1532.19,398.47,1532.19Z" transform="translate(-185.67 -153.34)"></path><path class="e8a1a9a3-c73f-489f-8ca3-41e32330eca9" d="M792,826.61a9.47,9.47,0,0,1-3-.48L578.16,756.41a9.56,9.56,0,0,1,6-18.15l204.47,67.61,34.69-44.46a9.56,9.56,0,1,1,15.07,11.76l-38.84,49.77A9.57,9.57,0,0,1,792,826.61Z" transform="translate(-185.67 -153.34)"></path><path class="e8a1a9a3-c73f-489f-8ca3-41e32330eca9" d="M457.86,1302.45a9.56,9.56,0,0,1-5.33-17.5l362.69-242a9.56,9.56,0,1,1,10.62,15.89l-362.68,242A9.52,9.52,0,0,1,457.86,1302.45Z" transform="translate(-185.67 -153.34)"></path><path class="e8a1a9a3-c73f-489f-8ca3-41e32330eca9" d="M824.73,781.59a9.56,9.56,0,0,1-7.13-3.19c-10.24-11.47-10.76-33.88-10.76-38.25a9.54,9.54,0,0,1,9.54-9.55h0a9.57,9.57,0,0,1,9.56,9.54c0,7.65,1.91,21.05,5.9,25.53a9.56,9.56,0,0,1-7.13,15.92Z" transform="translate(-185.67 -153.34)"></path><path class="e8a1a9a3-c73f-489f-8ca3-41e32330eca9" d="M759.67,911.1a9.52,9.52,0,0,1-4.35-1.05L530.25,794.91a9.62,9.62,0,0,1-5-10.18s.18-1.07.66-3c2-8.1,9.86-36.31,25.61-60.22.34-.59.92-1.53,1.58-2.48a9.55,9.55,0,1,1,15.7,10.89c-.4.58-.75,1.17-1.09,1.75-12,18.18-18.89,39.05-21.92,49.7L756.51,889.18l26.83-39.57a9.55,9.55,0,1,1,15.81,10.73L767.58,906.9A9.53,9.53,0,0,1,759.67,911.1Z" transform="translate(-185.67 -153.34)"></path><path class="e8a1a9a3-c73f-489f-8ca3-41e32330eca9" d="M872.82,891.06a9.49,9.49,0,0,1-5.77-1.94L819,852.66a9.55,9.55,0,0,1,11.54-15.23l29.86,22.64L849,773.51a9.56,9.56,0,1,1,18.95-2.5l14.37,109.25a9.54,9.54,0,0,1-9.47,10.8Z" transform="translate(-185.67 -153.34)"></path><path class="e8a1a9a3-c73f-489f-8ca3-41e32330eca9" d="M2278.08,1454a9.26,9.26,0,0,1-2.64-.38,9.56,9.56,0,0,1-6.56-11.81c42.33-147.92,26.73-371-15.82-429.59-.68-.92-1.39-1.83-2.1-2.67-53.62-64.26-169.86-167.82-239.87-187.08a9.56,9.56,0,1,1,5.08-18.43c73.71,20.28,194.28,127.13,249.44,193.23.93,1.11,1.91,2.34,2.88,3.66,45.9,63.18,63.22,290.84,18.77,446.13A9.57,9.57,0,0,1,2278.08,1454Z" transform="translate(-185.67 -153.34)"></path><path class="e8a1a9a3-c73f-489f-8ca3-41e32330eca9" d="M1766.26,714.13a85.53,85.53,0,0,1-22.55-3.38c-29.2-8-43-25.72-37.79-48.71l0-.15c0-.15.06-.3.1-.45,5.75-23.78,27.66-33.82,60.1-27.49,25.19,4.82,41,18.59,42.34,36.84a35.88,35.88,0,0,1-.29,8.81c-2,12.28-7.91,21.91-17.22,27.9C1784.13,711.92,1775.85,714.13,1766.26,714.13ZM1720.93,665c0,.12,0,.24-.08.35-3.32,14.58,5.73,24.91,26.91,30.68,15,4.15,27.12,3.68,35-1.35,7-4.51,9.51-11.95,10.37-17.39a21.06,21.06,0,0,0,.18-5.15c-1.2-16.4-23.26-21.86-30-23.15h0c-24.3-4.72-38.51.64-42.3,15.93A.22.22,0,0,0,1720.93,665Z" transform="translate(-185.67 -153.34)"></path><path class="e8a1a9a3-c73f-489f-8ca3-41e32330eca9" d="M1629.51,688.14a68.37,68.37,0,0,1-7.31-.4,96.53,96.53,0,0,1-15-2.91c-29.31-8-43.07-25.77-37.74-48.85,5.52-24.13,27.4-34.35,60.13-28h0a79,79,0,0,1,15.58,4.66,59.87,59.87,0,0,1,6.68,3.27c15.21,8.65,22.25,22.11,19.75,37.85a35.15,35.15,0,0,1-1.43,6.16C1665.13,677.83,1650.13,688.14,1629.51,688.14Zm-18.14-66.82c-15.18,0-24.23,6.06-27,18.09-1.26,5.45-5.09,22,26.88,30.67a81.07,81.07,0,0,0,12.6,2.46c17,1.86,28-4.06,31.72-17.12a21.14,21.14,0,0,0,.92-3.89c1.52-9.59-2.49-16.85-12.25-22.39a45.31,45.31,0,0,0-5-2.44,64.86,64.86,0,0,0-12.56-3.74A81.75,81.75,0,0,0,1611.37,621.32Z" transform="translate(-185.67 -153.34)"></path><path class="e8a1a9a3-c73f-489f-8ca3-41e32330eca9" d="M1477,970.73a9.57,9.57,0,0,1-6.88-16.19l.7-.78c48.28-51,102.11-85.76,151.49-97.67l3.14,9.08-2.26-9.29a9.56,9.56,0,0,1,4.73,18.52l-.79.19c-46.16,11.13-96.65,43.91-142.5,92.38a13,13,0,0,1-.92,1A9.57,9.57,0,0,1,1477,970.73Z" transform="translate(-185.67 -153.34)"></path><path class="e8a1a9a3-c73f-489f-8ca3-41e32330eca9" d="M1451.1,1074c-55.17,0-103.27-12-121.61-26.59a9.56,9.56,0,0,1,11.88-15c27.69,22,146.87,36.9,230.69-1.22a9.56,9.56,0,0,1,7.92,17.4C1539.65,1067,1493.3,1074,1451.1,1074Z" transform="translate(-185.67 -153.34)"></path><path class="e8a1a9a3-c73f-489f-8ca3-41e32330eca9" d="M1763.38,1568.63c-14,0-28.14-1.91-35.55-5.4a9.56,9.56,0,0,1,8.14-17.29c11.24,5.29,45.72,4.07,51.69.43a9.69,9.69,0,0,1,13.18,3,9.42,9.42,0,0,1-2.66,13C1791.64,1566.65,1777.6,1568.63,1763.38,1568.63Z" transform="translate(-185.67 -153.34)"></path><path class="e8a1a9a3-c73f-489f-8ca3-41e32330eca9" d="M1813.39,678.15a7.65,7.65,0,0,1-1.21-15.2l157-25.23a7.65,7.65,0,1,1,2.35,15.11l-6.34,1-150.57,24.23A7.37,7.37,0,0,1,1813.39,678.15Z" transform="translate(-185.67 -153.34)"></path><path class="e8a1a9a3-c73f-489f-8ca3-41e32330eca9" d="M1822.38,960.22c-41.69,0-74.77-14.65-94.55-39.15-1.27-1.51-2.51-3.18-3.75-4.93a9.56,9.56,0,0,1,15.64-11c.91,1.3,1.81,2.55,2.86,3.78,36.89,45.69,135.86,48.81,246.86-35.1.44-.37,1.15-.91,1.86-1.45l1.63-1.26A9.56,9.56,0,0,1,2005,886c-.7.56-1.41,1.11-2.12,1.65l-1.63,1.25C1934.65,939.18,1872.34,960.22,1822.38,960.22Z" transform="translate(-185.67 -153.34)"></path><path class="e8a1a9a3-c73f-489f-8ca3-41e32330eca9" d="M1999,1444.8a9.56,9.56,0,0,1-8.85-13.17l82-200.61a9.56,9.56,0,0,1,17.69,7.23l-82,200.61A9.57,9.57,0,0,1,1999,1444.8Z" transform="translate(-185.67 -153.34)"></path><path class="e8a1a9a3-c73f-489f-8ca3-41e32330eca9" d="M1246.12,1417.05a9.56,9.56,0,0,1-7.41-15.58c.28-.35,28.3-35,50.15-69a646.8,646.8,0,0,0,37.7-68.4,9.74,9.74,0,0,1,2.36-3.32,9.57,9.57,0,0,1,14.82,11.72,669.47,669.47,0,0,1-38.79,70.3c-22.45,35-50.23,69.31-51.4,70.75A9.53,9.53,0,0,1,1246.12,1417.05Z" transform="translate(-185.67 -153.34)"></path><path class="e8a1a9a3-c73f-489f-8ca3-41e32330eca9" d="M489,1235.63a9.35,9.35,0,0,1-3.64-.73,9.54,9.54,0,0,1-5.18-12.48c13.72-33.17,34.14-93,34.14-121.73,0-34.29-56.82-155.69-90.77-228.22L418.14,861a9.56,9.56,0,0,1,17.32-8.09l5.36,11.44c46.83,100.08,92.56,200.77,92.56,236.33,0,34-22.37,97.08-35.59,129A9.55,9.55,0,0,1,489,1235.63Z" transform="translate(-185.67 -153.34)"></path><path class="e8a1a9a3-c73f-489f-8ca3-41e32330eca9" d="M245.17,1558.64a9.55,9.55,0,0,1-8.79-5.8c-7.12-16.58-1.94-48.45,5.92-96.68,7-43.25,15.8-97.07,18.46-157.65a9.74,9.74,0,0,1,10-9.13,9.56,9.56,0,0,1,9.13,10c-2.72,61.71-11.58,116.14-18.69,159.88-6.52,40-12.15,74.61-7.23,86.08a9.57,9.57,0,0,1-8.77,13.33Z" transform="translate(-185.67 -153.34)"></path><path class="e8a1a9a3-c73f-489f-8ca3-41e32330eca9" d="M974.64,924a9.55,9.55,0,0,1-9.48-8.5l-7.57-67.74a9.55,9.55,0,0,1,19-2.12l7.57,67.74A9.56,9.56,0,0,1,975.71,924,9.46,9.46,0,0,1,974.64,924Z" transform="translate(-185.67 -153.34)"></path><path class="e8a1a9a3-c73f-489f-8ca3-41e32330eca9" d="M584.22,607.66a9.39,9.39,0,0,1-1.81-.17c-35-6.74-58-41.72-57.36-87,.34-22.83,8.45-39.37,22.24-45.37,15.37-6.67,34.24,0,56.11,19.77A9.56,9.56,0,1,1,590.57,509c-15.13-13.7-28.15-19.7-35.66-16.41-6.41,2.79-10.53,13.57-10.75,28.12-.54,35.75,16.28,63.08,41.86,68a9.56,9.56,0,0,1-1.8,18.94Z" transform="translate(-185.67 -153.34)"></path><path class="e8a1a9a3-c73f-489f-8ca3-41e32330eca9" d="M789.69,743.54c-38.15,0-77-13.92-110.33-39.71a9.56,9.56,0,1,1,11.69-15.12c32.39,25,70.32,37.64,106.66,35.48a116,116,0,0,0,51.7-15.45c23-13.53,42.89-38.68,56-70.82.85-2.13,1.72-4.31,2.52-6.56,6.84-18.59,11-38.32,11.84-55.65.27-4.92.32-10.24.14-16.33-.15-7.56-.58-15.08-1-22.58-.94-17-1.92-34.49.07-51.79a243.93,243.93,0,0,0,.64-38c-2-38.29-14-106.7-71.2-134.84-23-11.36-37.64-5.57-38.24-5.31a9.63,9.63,0,0,1-12.5-5,9.47,9.47,0,0,1,4.79-12.46c.91-.42,22.82-9.93,54.39,5.64,66,32.45,79.6,108.51,81.85,151a256.56,256.56,0,0,1-.74,41.24c-1.8,15.63-.91,31.6,0,48.49.43,7.72.86,15.46,1,23.18.18,6.56.12,12.39-.17,17.77-.91,19.42-5.39,40.61-13,61.19-.85,2.4-1.81,4.81-2.78,7.21-14.7,36-37.44,64.5-64,80.14a135,135,0,0,1-60.2,18C795.83,743.44,792.76,743.54,789.69,743.54Z" transform="translate(-185.67 -153.34)"></path><path class="e8a1a9a3-c73f-489f-8ca3-41e32330eca9" d="M705.33,472.48a7.64,7.64,0,0,1-5.5-13c.68-.71,17.12-17.39,36.06-11.89a7.65,7.65,0,0,1-4.26,14.69c-10-2.88-20.72,7.75-20.84,7.86A7.66,7.66,0,0,1,705.33,472.48Z" transform="translate(-185.67 -153.34)"></path><path class="e8a1a9a3-c73f-489f-8ca3-41e32330eca9" d="M969.23,1464.9a9.43,9.43,0,0,1-2.33-.3A9.54,9.54,0,0,1,960,1453c0-.08.22-.89.54-2.37a9.56,9.56,0,1,1,18.68,4c-.43,2-.69,3-.69,3A9.58,9.58,0,0,1,969.23,1464.9Z" transform="translate(-185.67 -153.34)"></path><path class="e8a1a9a3-c73f-489f-8ca3-41e32330eca9" d="M970,1461.7a9.66,9.66,0,0,1-2.13-.24,9.56,9.56,0,0,1-7.2-11.44c2.7-11.82,9.6-45.14,15.57-99.16,6.36-58.31,9.58-121.73,9.58-188.47a9.56,9.56,0,1,1,19.11,0c0,67.43-3.26,131.54-9.69,190.55-6.08,55-13.17,89.18-15.93,101.32A9.56,9.56,0,0,1,970,1461.7Z" transform="translate(-185.67 -153.34)"></path><path class="e8a1a9a3-c73f-489f-8ca3-41e32330eca9" d="M1463.87,1425.61l-.66,0a9.57,9.57,0,0,1-8.88-10.19c3.68-53.13,10.89-110.62,21.45-170.87a9.56,9.56,0,0,1,18.83,3.3c-10.45,59.6-17.59,116.42-21.21,168.88A9.56,9.56,0,0,1,1463.87,1425.61Z" transform="translate(-185.67 -153.34)"></path><path class="e8a1a9a3-c73f-489f-8ca3-41e32330eca9" d="M864.57,441.23a7.65,7.65,0,0,1-4.91-13.51c15-12.58,36.8-4.05,37.73-3.68a7.65,7.65,0,0,1-5.67,14.2h0c-.15-.06-14.38-5.37-22.25,1.21A7.69,7.69,0,0,1,864.57,441.23Z" transform="translate(-185.67 -153.34)"></path><path class="e8a1a9a3-c73f-489f-8ca3-41e32330eca9" d="M931.91,455.91a9.56,9.56,0,0,1-8-14.82c46.68-70.91-68.9-189.36-70.08-190.55-43-43.49-131.72-85.3-200.1-77-37.15,4.54-65.56,22.9-84.42,54.57a9.56,9.56,0,1,1-16.42-9.78c22.05-37,55.19-58.47,98.53-63.76,82.75-10.1,176.13,42.17,216,82.5C872.7,242.42,995,367.9,939.9,451.6A9.55,9.55,0,0,1,931.91,455.91Z" transform="translate(-185.67 -153.34)"></path><path class="e8a1a9a3-c73f-489f-8ca3-41e32330eca9" d="M904.53,920.88a9.54,9.54,0,0,1-9.48-8.56L885.72,823a8.21,8.21,0,0,1-.05-1,9.56,9.56,0,0,1,19.1-.68l9.28,89a9.55,9.55,0,0,1-8.51,10.5C905.21,920.86,904.87,920.88,904.53,920.88Z" transform="translate(-185.67 -153.34)"></path><path class="e8a1a9a3-c73f-489f-8ca3-41e32330eca9" d="M705.73,1103.6c-3.56,0-7.17-.08-10.91-.24-50.53-2-80.26-17.75-81.51-18.42a9.52,9.52,0,0,1-4.25-4.69C575.2,1000,508.83,843.92,500,828c-.23-.44-.06-.19.18.12a9.56,9.56,0,0,1,14.19-12.79,14.09,14.09,0,0,1,2.55,3.79c10.71,19.38,95.78,220.71,108.33,250.41,8.08,3.61,33,13.32,70.34,14.78,5.55.24,10.72.29,15.89.15a9.72,9.72,0,0,1,9.81,9.3,9.57,9.57,0,0,1-9.3,9.81C709.91,1103.57,707.83,1103.6,705.73,1103.6Zm-205-275h0Zm0,0Z" transform="translate(-185.67 -153.34)"></path><path class="e8a1a9a3-c73f-489f-8ca3-41e32330eca9" d="M833.74,581.59a40,40,0,0,1-5.47-.38,7.65,7.65,0,0,1,2.11-15.15c6.77.94,14.37-1.1,18.48-4.95a7.64,7.64,0,1,1,10.47,11.14C853,578.16,843.41,581.59,833.74,581.59Z" transform="translate(-185.67 -153.34)"></path><path class="e8a1a9a3-c73f-489f-8ca3-41e32330eca9" d="M878.49,602.23a9.55,9.55,0,0,1-1.28,19.06c-44-2-72.74-.95-98.62,10.45a98.14,98.14,0,0,0-9,4.36,9.56,9.56,0,0,1-9.25-16.73A116.77,116.77,0,0,1,771,614.21c29.23-12.88,60.2-14.16,107.1-12A2.73,2.73,0,0,1,878.49,602.23Z" transform="translate(-185.67 -153.34)"></path><path class="e8a1a9a3-c73f-489f-8ca3-41e32330eca9" d="M676.35,488.32a9.56,9.56,0,0,1-5.16-17.61c48.75-31.21,69.24-123.65,78-163.48a11.38,11.38,0,0,1,.89-3,9.56,9.56,0,0,1,18,5.85c0,.31-.09.63-.15.93-14.39,65.29-37.22,144.27-86.44,175.79A9.52,9.52,0,0,1,676.35,488.32Z" transform="translate(-185.67 -153.34)"></path><path class="e8a1a9a3-c73f-489f-8ca3-41e32330eca9" d="M567.62,536A9.56,9.56,0,0,1,565.81,517a105,105,0,0,0,32-11.62c38.72-21.84,58.36-65.86,77.34-108.43,20.21-45.33,39.31-88.15,80.36-97.54a9.56,9.56,0,1,1,4.26,18.63c-31.75,7.26-48.16,44.07-67.16,86.69C673.27,448,651.39,497.09,607.19,522a124.41,124.41,0,0,1-37.75,13.75A10.28,10.28,0,0,1,567.62,536Z" transform="translate(-185.67 -153.34)"></path><path class="e8a1a9a3-c73f-489f-8ca3-41e32330eca9" d="M755.25,436.11A9.56,9.56,0,0,1,750.88,418c24.2-12.4,36.91-77.73,26.62-109.41a9.55,9.55,0,1,1,18.17-5.9c12,36.76,0,113.82-36.07,132.32A9.49,9.49,0,0,1,755.25,436.11Z" transform="translate(-185.67 -153.34)"></path><path class="e8a1a9a3-c73f-489f-8ca3-41e32330eca9" d="M584.75,730.06a154.76,154.76,0,0,1-24.45-2c-55.35-8.92-124-47.81-150.61-130.2-19-58.73-3.36-253.14,59.75-339.92,21.23-29.18,46-44,73.65-44A77.25,77.25,0,0,1,557,215.16,9.56,9.56,0,0,1,553.61,234a57.69,57.69,0,0,0-10.52-.92c-21.19,0-40.77,12.15-58.19,36.1-58.89,81-74.6,268.55-57,322.8,24,74.19,85.7,109.19,135.47,117.21,34.4,5.52,57.68-2.42,62.9-13.11,2.47-5.06-9.35-23.52-16.4-34.56-9.52-14.89-19.37-30.29-21.11-44a9.56,9.56,0,1,1,19-2.42c1.2,9.44,10.26,23.6,18.25,36.11,12.67,19.81,24.64,38.53,17.48,53.23C635.41,720.83,613.44,730.06,584.75,730.06Z" transform="translate(-185.67 -153.34)"></path><path class="e8a1a9a3-c73f-489f-8ca3-41e32330eca9" d="M914.25,651.09a9.56,9.56,0,0,1-3.52-18.44c29.35-11.66,37.29-21,38.78-26.74,2-7.66-6.12-17.55-14.71-28-3.52-4.28-7.14-8.71-10.35-13.33a9.56,9.56,0,1,1,15.7-10.9c2.77,4,6.16,8.12,9.43,12.12,10.71,13.06,22.85,27.86,18.44,44.92-3.89,15-19.85,27.65-50.24,39.71A9.54,9.54,0,0,1,914.25,651.09Z" transform="translate(-185.67 -153.34)"></path><path class="e8a1a9a3-c73f-489f-8ca3-41e32330eca9" d="M1977.84,765.69a9.56,9.56,0,0,1-3.22-18.56,67.21,67.21,0,0,0,25.73-16.46c21.86-22.18,25.11-56.6,13.46-72.58-9.84-13.51-26.4-9-38.54-2.91-1.29.64-2.53,1.34-3.78,2a9.55,9.55,0,1,1-9.3-16.69c1.5-.84,3-1.67,4.51-2.42,25.73-13,49.12-9.7,62.56,8.73,16.53,22.69,14.35,67.16-15.24,97.2a86.1,86.1,0,0,1-33,21.1A9.55,9.55,0,0,1,1977.84,765.69Z" transform="translate(-185.67 -153.34)"></path><path class="e8a1a9a3-c73f-489f-8ca3-41e32330eca9" d="M1642.53,558.27a7.64,7.64,0,0,1-2.68-14.8c2.07-.78,20.54-7.4,32.75-2.35a7.64,7.64,0,1,1-5.85,14.12c-4.78-2-15.68.35-21.54,2.55A7.63,7.63,0,0,1,1642.53,558.27Z" transform="translate(-185.67 -153.34)"></path><path class="e8a1a9a3-c73f-489f-8ca3-41e32330eca9" d="M1819.13,594.35a7.6,7.6,0,0,1-5.1-2c-7.54-6.75-22.67-17.46-31.14-17.46a7.65,7.65,0,0,1,0-15.29c17,0,38.91,19.19,41.35,21.37a7.64,7.64,0,0,1-5.11,13.33Z" transform="translate(-185.67 -153.34)"></path><path class="e8a1a9a3-c73f-489f-8ca3-41e32330eca9" d="M1688.34,831.53a43,43,0,0,1-24.15-7.71,9.56,9.56,0,1,1,11-15.66c5.1,3.57,12.26,5.17,17,3.77a9.56,9.56,0,0,1,5.31,18.36A33,33,0,0,1,1688.34,831.53Z" transform="translate(-185.67 -153.34)"></path><path class="e8a1a9a3-c73f-489f-8ca3-41e32330eca9" d="M826.41,702.18a41.41,41.41,0,0,1-10.14-1.25,7.65,7.65,0,0,1,3.78-14.82c6.66,1.69,14.45.56,18.92-2.78a7.65,7.65,0,0,1,9.14,12.26C842.36,699.87,834.47,702.18,826.41,702.18Z" transform="translate(-185.67 -153.34)"></path><path class="e8a1a9a3-c73f-489f-8ca3-41e32330eca9" d="M1690.06,701.44a43.27,43.27,0,0,1-24-7.63,9.55,9.55,0,1,1,10.84-15.73c5.19,3.57,12.33,5.14,17,3.76a9.56,9.56,0,0,1,5.48,18.31A32.28,32.28,0,0,1,1690.06,701.44Z" transform="translate(-185.67 -153.34)"></path><path class="e8a1a9a3-c73f-489f-8ca3-41e32330eca9" d="M1750.56,924a9.57,9.57,0,0,1-8.89-6l-10.24-25.84a9.56,9.56,0,1,1,17.77-7l10.24,25.84a9.57,9.57,0,0,1-8.88,13.08Z" transform="translate(-185.67 -153.34)"></path><path class="e8a1a9a3-c73f-489f-8ca3-41e32330eca9" d="M1642.53,621.73a9.55,9.55,0,0,1-9.53-9,56.64,56.64,0,0,0-1-6.78l-1-4.74c-2.85-13.23-6.75-31.36-2.22-55.74,3.2-17.11,10.24-35.09,20.94-53.45a9.55,9.55,0,1,1,16.51,9.62c-9.59,16.47-15.87,32.39-18.66,47.33-3.83,20.6-.53,35.92,2.11,48.23l1.07,5.09a76.94,76.94,0,0,1,1.32,9.22,9.56,9.56,0,0,1-8.92,10.15Z" transform="translate(-185.67 -153.34)"></path><path class="e8a1a9a3-c73f-489f-8ca3-41e32330eca9" d="M1744.84,893.35c-1.6,0-3.17,0-4.73-.07-32.88-.91-60.25-12-81.31-33-20.67-20.6-35.08-50.56-42.84-89.06a270.14,270.14,0,0,1-2.37-92.52c3.56-24.3,10.56-46.61,19.19-61.18a9.56,9.56,0,1,1,16.44,9.75c-7.41,12.5-13.5,32.27-16.73,54.23a250.61,250.61,0,0,0,2.21,85.94c7,34.74,19.64,61.41,37.59,79.3,17.49,17.42,40.49,26.64,68.36,27.41,25.68.81,55.91-5.57,90-18.85a9.56,9.56,0,1,1,6.93,17.81C1803.12,886.55,1771.94,893.35,1744.84,893.35Z" transform="translate(-185.67 -153.34)"></path><path class="e8a1a9a3-c73f-489f-8ca3-41e32330eca9" d="M2011.48,836.25a9.49,9.49,0,0,1-5.19-1.54c-4.17-2.69-7-8.91-8.53-19a156.54,156.54,0,0,1-1.72-25.4c0-14.71,1-32.4,3.11-52.58a9.55,9.55,0,1,1,19,1.95c-2,19.53-3,36.56-3,50.63a134.29,134.29,0,0,0,1.48,22.32,30.39,30.39,0,0,0,1.9,7.61,9.56,9.56,0,0,1-7,16Zm7.18-15.75Zm-1.93-1.8Zm0,0h0Zm0,0h0Zm0,0h0Z" transform="translate(-185.67 -153.34)"></path><path class="e8a1a9a3-c73f-489f-8ca3-41e32330eca9" d="M1973.71,627.08a9.61,9.61,0,0,1-3-.48c-15.72-5.16-28.52-13.66-38-25.26-17.92-21.82-21.29-50.43-24-73.43-1.71-14.53-3.48-29.56-8.59-33.53-.55-.41-2.21-1.68-7-1a9.55,9.55,0,0,1-2.59-18.93c8.46-1.17,15.62.47,21.27,4.85,11.47,8.88,13.51,26.27,15.88,46.41,2.54,21.58,5.42,46,19.77,63.53,7.29,8.88,16.86,15.17,29.23,19.23a9.56,9.56,0,0,1-3,18.64Z" transform="translate(-185.67 -153.34)"></path><path class="e8a1a9a3-c73f-489f-8ca3-41e32330eca9" d="M2013.62,799.79a9.56,9.56,0,0,1-1.93-18.92c31.77-6.6,53.07-39.36,75.62-74,5.6-8.6,11.38-17.51,17.41-26.12,30.86-44,42-114.91,27.73-176.46-11.18-48.19-36.38-85.21-71-104.26a9.55,9.55,0,0,1,9.21-16.74c39.43,21.7,68,63.14,80.4,116.68,15.67,67.57,3.62,142.83-30.69,191.74-5.84,8.34-11.54,17.11-17.05,25.58-24.78,38.12-48.18,74.12-87.76,82.34A9.31,9.31,0,0,1,2013.62,799.79Z" transform="translate(-185.67 -153.34)"></path><path class="e8a1a9a3-c73f-489f-8ca3-41e32330eca9" d="M1636.26,556.44a9.54,9.54,0,0,1-7.1-3.16c-60.3-67-14.18-116.77,13.37-146.5,7-7.5,13.51-14.58,16.89-20.18,45.13-74.58,150.41-92.1,227.29-104.89l4.93-.82c41.47-6.9,146.28,15.22,161.54,89.14a9.56,9.56,0,1,1-18.72,3.86c-12.07-58.52-103-80.23-139.68-74.15l-4.94.82c-73.22,12.19-173.49,28.87-214.06,95.92-4.39,7.27-11.27,14.7-19.23,23.29-29,31.26-61.81,66.7-13.19,120.72a9.55,9.55,0,0,1-7.1,16Z" transform="translate(-185.67 -153.34)"></path><path class="e8a1a9a3-c73f-489f-8ca3-41e32330eca9" d="M1668.45,506.46a62.17,62.17,0,0,1-12.19-1.2,51.66,51.66,0,0,1-6.1-1.52,9.56,9.56,0,0,1,5.54-18.3,31.51,31.51,0,0,0,4.07,1c22.31,4.43,44.92-9.7,68.86-24.65,35.31-22.05,75.31-47,115.72-5.3a9.55,9.55,0,0,1-13.73,13.29c-28.21-29.15-53.28-15.87-91.86,8.22C1716.33,492,1693.25,506.46,1668.45,506.46Z" transform="translate(-185.67 -153.34)"></path><path class="e8a1a9a3-c73f-489f-8ca3-41e32330eca9" d="M1959.72,654.81c-8.87,0-24.47-2.91-35.14-21a9.55,9.55,0,1,1,16.47-9.69c6.51,11.06,15.16,12.35,21.36,11.44a10.23,10.23,0,0,0,1.59-.28,9.56,9.56,0,0,1,5.84,18.2,25.26,25.26,0,0,1-4.91,1A35.56,35.56,0,0,1,1959.72,654.81Z" transform="translate(-185.67 -153.34)"></path><path class="e8a1a9a3-c73f-489f-8ca3-41e32330eca9" d="M1792.88,783.87a9.55,9.55,0,0,1-1.41-.1c-8.25-1.22-8.31-9.15-8.35-13.88,0-.34,0-.68.05-1-.87-10-4.68-29.27-14.43-34.07a9.55,9.55,0,1,1,8.43-17.15c24.55,12.07,26.2,55.1,24.84,59.48A9.59,9.59,0,0,1,1792.88,783.87Zm0-9.55h0Z" transform="translate(-185.67 -153.34)"></path><path class="e8a1a9a3-c73f-489f-8ca3-41e32330eca9" d="M1694.65,803.84a47.12,47.12,0,0,1-11.07-1.34c-27.39-6.5-33.06-26.61-34.93-41.17a69.37,69.37,0,0,1-.38-11.23c.13-5.88.1-9.07-2-11.85l4-3.28-4.28,2.91c-5.8-7.44-.27-13,.38-13.64,3.59-3.38,9.73-3,13.44.25,9.7,8.51,22.75,14.44,36.76,16.7,26.82,4.26,35.2,1.77,38.36.84,2.1-.64,6-1.79,10.18.73,7.78,4.86,3.88,14.18,2,18.67C1738.46,782.13,1720,803.84,1694.65,803.84ZM1667.34,752a45.14,45.14,0,0,0,.26,6.85c1.71,13.26,5.59,21.58,20.42,25.1a25.9,25.9,0,0,0,20.92-3.68c7-4.45,12.4-11.44,16.12-17.59-7.19.22-17.23-.32-31.5-2.58A98,98,0,0,1,1667.34,752Z" transform="translate(-185.67 -153.34)"></path><path class="e8a1a9a3-c73f-489f-8ca3-41e32330eca9" d="M1537,1181.43a9.56,9.56,0,0,1-3-18.64,56,56,0,0,0,13.35-7c28.57-19.55,60.35-64.67,60.24-98.13-.05-13.31-5-23.38-15.14-30.72l-1.53-.41c-16.82-4.33-76.34-18.5-135.44-18.5h-1.15c-3.69,0-7.39.08-11.08.23a488.27,488.27,0,0,0-57.38,5.33,609.14,609.14,0,0,0-65.42,13.26l-.4.32c-7.9,6.64-12.32,15.76-13.38,27.3-3.42,36.44,26.39,85.64,55.33,105.29a9.56,9.56,0,0,1-10.74,15.81c-34.13-23.17-67.83-78.07-63.62-122.87,1.5-16.46,8.38-30.29,19.86-40l.61-.49c.76-.6,1.56-1.24,2.36-1.83a9.54,9.54,0,0,1,3-1.48,601.11,601.11,0,0,1,69.56-14.25,506.54,506.54,0,0,1,59.51-5.52c3.86-.16,7.81-.24,11.75-.24h1.15c61.34,0,122.84,14.63,140.23,19.11l3.29.87a9.27,9.27,0,0,1,2.88,1.31c16.17,10.91,24.75,27.29,24.82,47.39.13,40-35.35,91.24-68.57,114A74.56,74.56,0,0,1,1540,1181,9.62,9.62,0,0,1,1537,1181.43Z" transform="translate(-185.67 -153.34)"></path><path class="e8a1a9a3-c73f-489f-8ca3-41e32330eca9" d="M1383.67,1008a9.55,9.55,0,0,1-6.78-16.29c3.94-4,7.93-9.27,12.15-14.9,8.59-11.45,17.47-23.29,29.73-29.42,16.15-8.08,25.54-2.3,29.69,1.86,12,12,8.29,37.4,2.86,48.27a9.56,9.56,0,0,1-17.1-8.54c3.78-7.56,4.2-22.75.73-26.22-.69-.68-3.55-.32-7.64,1.73-8.22,4.11-15.73,14.12-23,23.8-4.42,5.89-9,12-13.87,16.89A9.54,9.54,0,0,1,1383.67,1008Z" transform="translate(-185.67 -153.34)"></path><path class="e8a1a9a3-c73f-489f-8ca3-41e32330eca9" d="M1390.33,1216.14a9.56,9.56,0,0,1-4.25-18.13c6.29-3.11,14.27-4.39,22-5.62,3.69-.59,7.43-1.18,10.91-2,4.87-1.15,8.14-2.54,9.71-4.1a3,3,0,0,0,.94-2.46c-.09-1.74-1.28-4.49-4.36-7-3.27-2.66-12.8-8.24-29.91-2.21-19.17,6.85-28.25,6.93-35.55,7l-2.74.05c-4.33.12-8.34.56-17.37,5a9.56,9.56,0,0,1-8.5-17.12c11.25-5.59,18-6.84,25.32-7l3.12,0c6.17,0,13.16-.12,29.33-5.89,18.49-6.52,36.11-4.55,48.37,5.4,6.86,5.62,11,13.21,11.38,20.87a22.12,22.12,0,0,1-6.51,16.93c-5.5,5.49-13,7.8-18.86,9.2-3.93.92-8.12,1.59-12.26,2.26-6.3,1-12.81,2-16.51,3.88A9.48,9.48,0,0,1,1390.33,1216.14Z" transform="translate(-185.67 -153.34)"></path><path class="e8a1a9a3-c73f-489f-8ca3-41e32330eca9" d="M1447.84,1216.12c-9.39,0-19.86-2.33-30.95-7.86h0a9.56,9.56,0,1,1,8.43-17.15l.07,0c23.26,11.6,38.49,3.55,43.81-3,2-2.4,2.46-4.41,2.46-5.23,0-1.26-1.26-3.43-4.09-5.45-5.63-4.13-16.22-6.82-27.86-1a9.56,9.56,0,1,1-8.56-17.1c15.95-7.95,34.63-6.93,47.63,2.61,7.58,5.4,12,13.06,12,20.93,0,5.79-2.39,11.92-6.72,17.26C1476.57,1209.42,1463.75,1216.12,1447.84,1216.12Z" transform="translate(-185.67 -153.34)"></path><path class="e8a1a9a3-c73f-489f-8ca3-41e32330eca9" d="M1500.91,1211.64a52.26,52.26,0,0,1-9.49-.86c-12.43-2.32-19.82-8.41-20.62-9.1a9.56,9.56,0,0,1,12.43-14.52h0a28.6,28.6,0,0,0,11.67,4.82,33,33,0,0,0,10.07.3,37.44,37.44,0,0,0,11.4-3c3.67-1.75,6-4.14,6.26-6.38a3.37,3.37,0,0,0-1.42-3.07h0l-.45-.28c-7-4.06-19.73-6.79-32.7-1.2a9.56,9.56,0,0,1-7.56-17.56c19.46-8.37,38.47-4.36,49.77,2.18.76.44,1.45.89,2.27,1.47a22.59,22.59,0,0,1,9.1,20.45c-1,9-7.18,16.95-17.1,21.67a56.12,56.12,0,0,1-17.27,4.68A51.83,51.83,0,0,1,1500.91,1211.64Z" transform="translate(-185.67 -153.34)"></path><path class="e8a1a9a3-c73f-489f-8ca3-41e32330eca9" d="M1541.86,1210.64a74.8,74.8,0,0,1-21.84-3.41,9.56,9.56,0,1,1,5.58-18.28c21,6.41,35.53-.9,37.1-5.43.68-2-2.94-6.49-13.11-10.48a9.56,9.56,0,0,1,7-17.79c23.49,9.22,27.88,23.89,24.17,34.55C1576.68,1201.48,1561.83,1210.64,1541.86,1210.64Z" transform="translate(-185.67 -153.34)"></path><path class="e8a1a9a3-c73f-489f-8ca3-41e32330eca9" d="M1267.15,1128.52a9.56,9.56,0,0,1-9.55-9.55,63.33,63.33,0,0,1,.91-11c2.57-16.41,10.62-30.1,18.42-43.34,3.15-5.36,6.13-10.42,8.75-15.63a9.55,9.55,0,1,1,17.08,8.57c-2.9,5.79-6.19,11.36-9.36,16.75-7.2,12.23-14,23.79-16,36.78a43.65,43.65,0,0,0-.66,7.86A9.56,9.56,0,0,1,1267.15,1128.52Z" transform="translate(-185.67 -153.34)"></path><path class="e8a1a9a3-c73f-489f-8ca3-41e32330eca9" d="M993.46,1362.38a9.56,9.56,0,1,1,0-19.11c30.53,0,156-46.2,335.67-123.6,18.23-7.87,30.39-13.19,33.5-14.55a9.4,9.4,0,0,1,1.57-.65,9.77,9.77,0,0,1,11.93,6.35,9.35,9.35,0,0,1-5.45,11.63c-3.77,1.65-15.89,7-34,14.76C1228.18,1284,1039.31,1362.38,993.46,1362.38Z" transform="translate(-185.67 -153.34)"></path><path class="e8a1a9a3-c73f-489f-8ca3-41e32330eca9" d="M1080.38,1151.38a9.55,9.55,0,0,1-1.83-18.93l1.12-.23c15.69-2.64,165.25-28.45,182.58-32l.72-.17a9.71,9.71,0,0,1,11.61,7.08,9.39,9.39,0,0,1-6.84,11.43l-.53.12-1.11.26c-17.5,3.61-167.53,29.5-183,32.1l-.91.18A9.72,9.72,0,0,1,1080.38,1151.38Z" transform="translate(-185.67 -153.34)"></path><path class="e8a1a9a3-c73f-489f-8ca3-41e32330eca9" d="M874.72,974.66c-.94,0-2-.06-3-.14a28.47,28.47,0,0,1-25.84-26.8l0-1.53a28.5,28.5,0,0,1,26.94-28.51l149.9-8.33a28.41,28.41,0,0,1,30,26.95,9.55,9.55,0,1,1-19.08,1,9.32,9.32,0,0,0-9.85-8.83l-150,8.34a9.39,9.39,0,0,0-8.87,9.42v1c.25,4,3.89,7.84,8.46,8.3a8,8,0,0,0,1.3.06l108-5.74a9.55,9.55,0,1,1,1,19.08L876,974.61C875.6,974.65,875.16,974.66,874.72,974.66Z" transform="translate(-185.67 -153.34)"></path><path class="e8a1a9a3-c73f-489f-8ca3-41e32330eca9" d="M897.89,935.18a9.56,9.56,0,0,1-7.56-15.39l1.39-1.83a112.51,112.51,0,0,1,8.66-10.41c8.42-8.66,17.29-12.17,26.18-10.42,31.72,6.12,46.86,14.82,47.49,15.19a9.56,9.56,0,1,1-9.65,16.5c-.09-.05-13.35-7.5-41.48-12.93-2.21-.46-5.2,1.25-8.84,5a94.72,94.72,0,0,0-7.16,8.66l-1.45,1.9A9.55,9.55,0,0,1,897.89,935.18Z" transform="translate(-185.67 -153.34)"></path><path class="e8a1a9a3-c73f-489f-8ca3-41e32330eca9" d="M843,1042.13a9.32,9.32,0,0,1-1.57-.13,9.55,9.55,0,0,1-7.87-11c.91-5.54,9.58-54.58,33.2-71.24a9.56,9.56,0,1,1,11,15.62c-14.49,10.22-23.39,46.74-25.36,58.73A9.56,9.56,0,0,1,843,1042.13Z" transform="translate(-185.67 -153.34)"></path><path class="e8a1a9a3-c73f-489f-8ca3-41e32330eca9" d="M998.13,1010A9.56,9.56,0,0,1,995,991.44l25.78-9c20.14-7,45.84-16,60.08-20.91a67.83,67.83,0,0,1,8.65-2.07,181,181,0,0,0,21.1-5.3c9.17-3.14,20-8.47,19.44-15.94a14.59,14.59,0,0,0-.9-3.88c-.69-1.82-14.15-8.23-61.15,6.72-4.72,1.5-9.64,3.22-14.65,5q-3.43,1.23-6.6,2.2c-7.37,2.35-14,3.92-20.32,5.44-13.49,3.21-24.14,5.75-37.05,14.57a132.49,132.49,0,0,0-19.87,17.2,9.55,9.55,0,1,1-13.7-13.32,150.79,150.79,0,0,1,22.79-19.66c15.83-10.82,29.22-14,43.4-17.38,6-1.44,12.25-2.92,19-5.08,2-.6,3.87-1.25,5.87-2,5.23-1.88,10.4-3.67,15.32-5.23,49.21-15.67,77.76-14,84.85,4.83a33.29,33.29,0,0,1,2,9c.87,10.84-4,25.84-32.35,35.53a197.78,197.78,0,0,1-23.4,5.93c-2.78.56-4.93,1-6.08,1.35-14.38,5-40.07,13.94-60.19,21l-25.81,9A9.54,9.54,0,0,1,998.13,1010Z" transform="translate(-185.67 -153.34)"></path><path class="e8a1a9a3-c73f-489f-8ca3-41e32330eca9" d="M1011.51,1051.16a9.56,9.56,0,0,1-3.15-18.59l5.17-1.8c31.09-10.85,46.71-16.3,84.63-35.12l2.73-1.36c.87-.45,2.48-1.14,4.59-2,22.15-9.28,33.68-17.83,34.26-25.41a9.43,9.43,0,0,1,10.26-8.8,9.54,9.54,0,0,1,8.79,10.26c-1.76,23.07-32.7,36-45.92,41.58-1.54.64-2.72,1.12-3.39,1.46l-2.81,1.4c-39,19.36-55,24.94-86.85,36l-5.16,1.81A9.66,9.66,0,0,1,1011.51,1051.16Z" transform="translate(-185.67 -153.34)"></path><path class="e8a1a9a3-c73f-489f-8ca3-41e32330eca9" d="M1025,1086.94a9.56,9.56,0,0,1-3.14-18.59c17.68-6.16,36.35-13.16,53-22.55a161.92,161.92,0,0,0,21-14c6.38-5.12,10.48-13.64,9.72-16.46-.1-.37-1.57-1.26-4.65-1.73l-.68-.13a9.56,9.56,0,0,1-8.29-9.47c0-6,5-10.73,12.23-9.24,14.22,2.3,18.53,10.75,19.85,15.6,3.76,14-8,29.75-16.31,36.41a182.86,182.86,0,0,1-23.57,15.65c-18,10.1-37.58,17.46-56.1,23.92A9.56,9.56,0,0,1,1025,1086.94Zm76.59-73.33h0Z" transform="translate(-185.67 -153.34)"></path><path class="e8a1a9a3-c73f-489f-8ca3-41e32330eca9" d="M899.05,1151.35a94.16,94.16,0,0,1-11.85-.66,9.56,9.56,0,1,1,2.43-19c15.21,1.94,46.54-1.87,83.77-10.24,31.78-7.27,62.7-16.79,78.71-24.26,1.06-.47,2.38-1,4-1.66l3.13-1.27c26.84-10.51,29.55-16.17,29.82-17.2-2.91-4.33-7-8.66-8.67-9.3a9.35,9.35,0,0,1-8-10.67,9.74,9.74,0,0,1,10.93-8.19c10.47,1.37,18.85,13.38,22,18.48a18.36,18.36,0,0,1,1.88,15.82c-4.39,13-22.21,21.51-40.8,28.8l-3.13,1.26c-1.35.54-2.44,1-3.2,1.32-17.25,8.05-48.88,17.85-82.41,25.51C957.65,1144.62,923.59,1151.35,899.05,1151.35Z" transform="translate(-185.67 -153.34)"></path><path class="e8a1a9a3-c73f-489f-8ca3-41e32330eca9" d="M1214,992.25c-23.2,0-37-9.54-42.9-14.88L1114,974.92a9.55,9.55,0,0,1,.4-19.1h.42l60.84,2.61a9.55,9.55,0,0,1,7.11,3.63c.62.74,17.94,20.56,61.36,5.38,34.36-12,40.35-36.09,40.66-50.28-25.35,9.27-83.75,30.45-96.57,33.44-3.61.88-8.26.38-19.36-1-8.16-1-18.32-2.18-28.94-2.63a9.56,9.56,0,1,1,.81-19.1c11.35.48,21.91,1.74,30.39,2.75,5.14.61,11.5,1.36,13.21,1.24,12-2.83,80.26-27.65,105.51-37a9.56,9.56,0,0,1,12.61,6.79c4.92,21,.35,65.49-52,83.75C1236.37,990.39,1224.29,992.25,1214,992.25Z" transform="translate(-185.67 -153.34)"></path><path class="e8a1a9a3-c73f-489f-8ca3-41e32330eca9" d="M2374.87,1464.91h-.4l-467-19.11a9.56,9.56,0,0,1,.78-19.1l467,19.11a9.56,9.56,0,0,1-.38,19.11Z" transform="translate(-185.67 -153.34)"></path><path class="e8a1a9a3-c73f-489f-8ca3-41e32330eca9" d="M426.8,1667.2a9.56,9.56,0,0,1-3-18.62l746.08-250.15a10,10,0,0,1,3.42-.49l448.16,17.81a9.56,9.56,0,1,1-.76,19.1l-446.41-17.74L429.84,1666.7A9.45,9.45,0,0,1,426.8,1667.2Z" transform="translate(-185.67 -153.34)"></path><path class="e8a1a9a3-c73f-489f-8ca3-41e32330eca9" d="M195.24,1711.39a9.87,9.87,0,0,1-2.45-.32,9.57,9.57,0,0,1-6.8-11.68l38.15-144.5a9.57,9.57,0,0,1,9.24-7.11,25.31,25.31,0,0,0,10-2.35c24.77-10.52,53.24-52.57,62.13-67.89a9.56,9.56,0,0,1,16.54,9.59c-1.44,2.47-35.5,60.73-71.13,75.86a48.52,48.52,0,0,1-9.93,3.15l-36.47,138.13A9.58,9.58,0,0,1,195.24,1711.39Z" transform="translate(-185.67 -153.34)"></path><path class="e8a1a9a3-c73f-489f-8ca3-41e32330eca9" d="M2354.38,1456.72a8,8,0,0,1-1.1-.06,9.56,9.56,0,0,1-8.41-10.59l37.63-326.73c-.09-54.66-14.49-105.26-116.84-106.41a9.56,9.56,0,0,1,.1-19.12h.1c63.21.71,135.76,15.68,135.76,126.07,0,.37,0,.74-.06,1.1l-37.7,327.28A9.56,9.56,0,0,1,2354.38,1456.72Zm37.68-336.84h0Z" transform="translate(-185.67 -153.34)"></path><path class="e8a1a9a3-c73f-489f-8ca3-41e32330eca9" d="M902.33,1566.9a9.56,9.56,0,0,1-2.94-18.65l265.52-86a8.87,8.87,0,0,1,3.28-.46L1629.87,1478a9.55,9.55,0,0,1,9.21,9.88c-.18,5.27-4.77,9.66-9.88,9.21l-460-16.14-263.92,85.48A9.42,9.42,0,0,1,902.33,1566.9Z" transform="translate(-185.67 -153.34)"></path><path class="e8a1a9a3-c73f-489f-8ca3-41e32330eca9" d="M902.26,1566.89a9.56,9.56,0,1,1-.08-19.11h.08a9.56,9.56,0,0,1,0,19.11Z" transform="translate(-185.67 -153.34)"></path><path class="e8a1a9a3-c73f-489f-8ca3-41e32330eca9" d="M1826.4,1601.6H1826l-923.91-34.71a9.65,9.65,0,0,1-9.31-9.72,9.46,9.46,0,0,1,9.44-9.38l922.65,34.64,206.58-74-123-3.57a9.56,9.56,0,0,1-9.28-9.83,9.7,9.7,0,0,1,9.83-9.28l173.62,5a9.56,9.56,0,0,1,3,18.53l-.84.3L1829.62,1601A9.61,9.61,0,0,1,1826.4,1601.6Z" transform="translate(-185.67 -153.34)"></path><path class="e8a1a9a3-c73f-489f-8ca3-41e32330eca9" d="M1826.4,1653h-.35l-887.9-32.57a9.4,9.4,0,0,1-1.19-.12c-1.43-.23-35.1-6-43.92-34.84a9.56,9.56,0,0,1,18.28-5.6c4.88,16,24.85,20.78,28.25,21.49L1825,1633.8l226.91-77.93c1.17-.36,19.89-6.31,20.93-24.69a9.56,9.56,0,1,1,19.08,1.08c-1.8,32-32.9,41.43-34.22,41.82l-228.17,78.38A9.65,9.65,0,0,1,1826.4,1653Z" transform="translate(-185.67 -153.34)"></path><path class="e8a1a9a3-c73f-489f-8ca3-41e32330eca9" d="M1827.08,1558.64A9.56,9.56,0,0,1,1824,1540a34.47,34.47,0,0,0,5.51-2.39c12.8-6.93,22.24-22.2,28.15-45.44,4.09-16.42,6.34-36.6,6.67-59.93.77-47.91-6.72-97.07-9.9-115.66l-171.47.63c-4.24,17-14.59,62.49-16.42,108.43-.9,22.43.37,42.17,3.78,58.7,4.65,22.68,13.35,39,25.87,48.53a47.49,47.49,0,0,0,7.11,4.4,9.56,9.56,0,0,1-8.52,17.11,68,68,0,0,1-10.08-6.23c-16.4-12.48-27.51-32.63-33.09-60-3.73-18-5.13-39.34-4.17-63.31,2.39-60.05,18.25-117.36,18.92-119.77a9.55,9.55,0,0,1,9.17-7l186.85-.69h0a9.55,9.55,0,0,1,9.37,7.71c.52,2.62,12.64,64.93,11.65,127.38-.35,24.78-2.79,46.42-7.24,64.31-7.29,28.66-19.91,48-37.53,57.54a52.29,52.29,0,0,1-8.48,3.7A9.56,9.56,0,0,1,1827.08,1558.64Z" transform="translate(-185.67 -153.34)"></path><path class="e8a1a9a3-c73f-489f-8ca3-41e32330eca9" d="M1688.48,1569.87a9.55,9.55,0,0,1-9.56-9.55v-17.44a9.56,9.56,0,0,1,19.12,0v17.44A9.55,9.55,0,0,1,1688.48,1569.87Z" transform="translate(-185.67 -153.34)"></path><path class="e8a1a9a3-c73f-489f-8ca3-41e32330eca9" d="M1834.12,1572.86a9.56,9.56,0,0,1-9.56-9.56V1546a9.62,9.62,0,0,1,9.56-9.63,9.48,9.48,0,0,1,9.55,9.48v17.43A9.55,9.55,0,0,1,1834.12,1572.86Z" transform="translate(-185.67 -153.34)"></path><path class="e8a1a9a3-c73f-489f-8ca3-41e32330eca9" d="M1813.4,1532.26a9.55,9.55,0,0,1-6.49-16.57c18-16.65,13.6-116.65,11.48-164.71-.71-15.91-1.31-29.65-1.24-38.51a9.54,9.54,0,0,1,9.55-9.49h.08a9.55,9.55,0,0,1,9.48,9.63c-.07,8.37.53,21.88,1.22,37.52,3.65,82.7,5.06,158.67-17.59,179.59A9.55,9.55,0,0,1,1813.4,1532.26Z" transform="translate(-185.67 -153.34)"></path><path class="e8a1a9a3-c73f-489f-8ca3-41e32330eca9" d="M1779.15,1532.26a9.55,9.55,0,0,1-8.55-13.82c9.89-19.83,7-121.64,5.69-170.58-.41-14.47-.74-26.21-.74-33.26a9.56,9.56,0,0,1,19.12,0c0,6.93.32,18.49.72,32.73,2.19,78.7,3.41,157.39-7.68,179.64A9.57,9.57,0,0,1,1779.15,1532.26Z" transform="translate(-185.67 -153.34)"></path><path class="e8a1a9a3-c73f-489f-8ca3-41e32330eca9" d="M1740.32,1532.26a9.57,9.57,0,0,1-9.08-6.54c-14.58-43.88-10.87-102.25-7.59-153.75,1.34-21,2.6-40.79,2.6-58.36a9.56,9.56,0,1,1,19.11,0c0,18.18-1.27,38.28-2.63,59.57-3.17,49.76-6.76,106.15,6.66,146.51a9.57,9.57,0,0,1-9.07,12.57Z" transform="translate(-185.67 -153.34)"></path><path class="e8a1a9a3-c73f-489f-8ca3-41e32330eca9" d="M1706.14,1530.43a9.56,9.56,0,0,1-8.45-5.09c-25.84-48.78-18.19-105.3-11.45-155.18,2.72-20.14,5.3-39.15,5.3-55.56a9.56,9.56,0,0,1,19.11,0c0,17.69-2.65,37.33-5.47,58.13-6.36,47-13.57,100.31,9.4,143.67a9.57,9.57,0,0,1-8.44,14Z" transform="translate(-185.67 -153.34)"></path><path class="e8a1a9a3-c73f-489f-8ca3-41e32330eca9" d="M1908.73,1504.81h-.91a9.56,9.56,0,1,1,0-19.11h.91a9.56,9.56,0,1,1,0,19.11Z" transform="translate(-185.67 -153.34)"></path></svg> 