<svg id="a8bd2036-9c18-4d6d-a3c3-f9a890c86b2c" data-name="編集モード" xmlns="http://www.w3.org/2000/svg" viewBox="0 0 163.07 188.53"><defs><style>.bc41d42a-66b8-4a86-8d5c-785294cf47a6{fill:#828282;}</style></defs><path class="bc41d42a-66b8-4a86-8d5c-785294cf47a6" d="M279.49,295.5c-4.2-3-5.35-8.31-4.59-13.07a22.84,22.84,0,0,1,7.92-13.89,39.56,39.56,0,0,1,36.41-8,8.94,8.94,0,0,1,1.72.65,3.6,3.6,0,0,1,1.1.82c-.07-.09-.06.24,0,0s-.09.33-.12.42a7.54,7.54,0,0,1-.85,1.31,19.33,19.33,0,0,1-7.25,5.57,19,19,0,0,1-17.62-1.12c-10-6.17-12.8-19.73-9.09-30.17,4.43-12.47,16.51-20.62,28.68-24.37a73.12,73.12,0,0,1,22.92-3.13,65.5,65.5,0,0,1,18.86,2.89,41.56,41.56,0,0,1,13.71,7.06c3.78,3.14,6.51,7,6.44,11.78-.08,5.19-3.49,9.2-8,11.84a31.34,31.34,0,0,1-15.31,4.25c-12.37.08-21-10.05-24.55-21.07-4.11-12.91-4.31-28.13,4.86-39,8.79-10.39,21.9-16,34.65-19.85,15.23-4.57,32-6.48,47.58-2.21a23.34,23.34,0,0,1,7,3.09c1.95,1.31,3.64,3.12,3.91,5.47a6,6,0,0,1-2.73,5.44,29.93,29.93,0,0,1-7.22,3.66c-12.78,5.14-26.45,9-40.3,9.07-13.64.12-27.32-3.92-37.13-13.75-9.22-9.23-14.31-23-10.1-35.75,4.05-12.29,15.35-20.62,27.34-24.29a57,57,0,0,1,21.68-2.39c6.31.56,13.35,2.32,18.12,6.73a16.9,16.9,0,0,1,5.27,14.8c-.79,6.27-4.47,11.95-8.73,16.45A68.69,68.69,0,0,1,378,166.94,100.16,100.16,0,0,1,356.88,176a104.11,104.11,0,0,1-23.69,4.2c-3.39.2-6.79.44-10.19.32-3.21-.11-6.59-.52-9.43-2.12-5-2.81-5.64-9.18-5.53-14.34a38.31,38.31,0,0,1,4.09-16.94c2.75-5.26,7-9.85,12.54-12.16a20.1,20.1,0,0,1,17.85,1.21c12,6.75,18.25,21.28,19.35,34.47,1.14,13.66-2.72,28-12.56,37.82A38.48,38.48,0,0,1,315,219a32.47,32.47,0,0,1-16.6-8.21A27.23,27.23,0,0,1,290.31,195a20.52,20.52,0,0,1,4.8-16.43c4.36-4.85,10.55-7.65,16.81-9.09,11.85-2.71,24.3-.63,35.42,3.9,10,4,20.19,10.95,24.55,21.1,4.24,9.86,1.65,21.18-4.85,29.26-6.83,8.51-16.76,14.27-27,17.7-10.62,3.55-21.55,4.6-32.55,1.6s-21.47-9.83-27.39-19.89a35.14,35.14,0,0,1-5-17.75,39,39,0,0,1,5.69-19.83c7.4-12.45,20.6-19.79,34.16-23.72a128.26,128.26,0,0,1,36-4.77c11.79,0,24,1.61,34.85,6.41,11.16,4.93,20.76,13.45,25.09,25.08a32.83,32.83,0,0,1,1.34,20.09,31,31,0,0,1-10.58,15.52,49.79,49.79,0,0,1-15.82,8.32,76.75,76.75,0,0,1-9,2.38,14,14,0,0,1-1.81.33c-.66.05-.48,0-1.15-.24a5.71,5.71,0,0,0-4.13.06,2.54,2.54,0,0,0-1.73,3,2.49,2.49,0,0,0,3.05,1.73c.26-.1.93-.29.95-.3-.33.1-.27-.05.09.07a9.11,9.11,0,0,0,1.71.51,15.35,15.35,0,0,0,5.37-.65,72.74,72.74,0,0,0,9.81-2.82,52.42,52.42,0,0,0,18.26-10.81,34.06,34.06,0,0,0,10.39-18.91,39.75,39.75,0,0,0-3.31-22.81c-5.64-12.58-16.77-21.37-29.4-26.27-12.25-4.75-25.76-6.06-38.8-5.63-13.6.45-27.68,2.52-40.37,7.55a65.52,65.52,0,0,0-20.13,12.16,48.33,48.33,0,0,0-13,19.36,40.46,40.46,0,0,0-1.47,23,42.47,42.47,0,0,0,9.11,17.68c8.56,10,21.29,15.93,34.25,17.49,12,1.45,24.36-1.51,35.24-6.61,10.67-5,21-13,26-24a33.56,33.56,0,0,0,2.85-17.75A33,33,0,0,0,371,183.88c-8-9.61-20.29-15.52-32.21-18.52-13.39-3.38-29.11-3.11-41.05,4.57-6.08,3.9-10.78,9.76-12.12,17a29.72,29.72,0,0,0,3.59,20c7.28,12.85,22.46,18.73,36.74,17.49a43.81,43.81,0,0,0,34.1-21.9c8-13.83,9-31.52,3.68-46.47-4.69-13.29-15.84-27.5-31.23-27.61-14.94-.1-25.59,13.06-28.45,26.67-1.3,6.16-1.79,13.4.39,19.42a15.12,15.12,0,0,0,6,7.82c3.25,2.08,7.19,2.82,11,3.09a89.41,89.41,0,0,0,11.1-.2,114.68,114.68,0,0,0,13.06-1.47,106.7,106.7,0,0,0,25.15-7.58,95.36,95.36,0,0,0,19.67-11.48c5.86-4.51,11.25-10,14.51-16.69,3-6.15,4.18-13.41,1.63-19.93-2.64-6.73-8.26-11.17-14.91-13.64a51.35,51.35,0,0,0-23.5-2.43,60.47,60.47,0,0,0-22.21,6.76c-12.45,6.82-22,19.5-22,34.08,0,15.25,9.4,29.19,22.13,37,13.16,8.09,29,9.23,44,7a121,121,0,0,0,22.1-5.55q5-1.72,9.83-3.78a23,23,0,0,0,7.95-5,10.47,10.47,0,0,0,2.7-9.42,12.84,12.84,0,0,0-5.26-7.52c-5.71-4.29-13.39-5.46-20.29-6.22-16.82-1.83-34,1.64-49.64,7.91-13.79,5.55-27.87,14.51-33,29.2-2.57,7.34-2.64,15.33-1.44,22.94a49.89,49.89,0,0,0,7.2,19.87,31.08,31.08,0,0,0,15.12,12.41c6.1,2.2,12.85,1.8,19,0s12.09-5.08,15.65-10.45a17.21,17.21,0,0,0,.73-17.27c-2.65-5.17-7.64-8.94-12.67-11.61a55.35,55.35,0,0,0-16.09-5.55c-16.18-2.92-34.12-1.32-48.72,6.64-12.29,6.7-22.73,19.07-22.71,33.67,0,13.33,8.81,26.86,22.73,28.56a24.56,24.56,0,0,0,20.27-7.31c2.29-2.33,4.86-6,2.67-9.22-1.9-2.82-5.69-3.65-8.83-4.23a44.61,44.61,0,0,0-21.68,1,43.13,43.13,0,0,0-19,11.56c-8,8.73-10.38,24.57.3,32.21a2.48,2.48,0,1,0,2.51-4.28Z" transform="translate(-269.79 -111.61)"/></svg>