<?xml version="1.0" encoding="UTF-8"?> <svg xmlns="http://www.w3.org/2000/svg" xmlns:xlink="http://www.w3.org/1999/xlink" version="1.1" id="logo" x="0px" y="0px" viewBox="0 0 260 30.5" style="enable-background:new 0 0 260 30.5;" xml:space="preserve"> <style type="text/css"> .st0{fill:#231815;} </style> <g> <path class="st0" d="M70.5,20.9l-0.7-0.3c-0.4-0.2-0.8-0.2-1.2,0c-0.3,0.2-0.5,0.5-0.5,0.9C67.6,25.1,67,26,66.8,26 c0,0-0.1,0-0.2-0.2c-1.1-1.8-1.9-3.7-2.5-5.8C63,16.1,62.3,12,62,7.9h7.3c0.9,0,1.4-0.4,1.4-1.1s-0.5-1.2-1.4-1.2h-7.5 c-0.1-1.4-0.1-2.8-0.1-4.2c0-0.7-0.5-1.3-1.2-1.3c-0.1,0-0.1,0-0.2,0h-1.1c-0.9,0-1.4,0.5-1.4,1.2c0,1.3,0,2.7,0.1,4.3H42.3 c-0.9,0-1.4,0.4-1.4,1.1s0.5,1.2,1.4,1.2h15.8c0.2,2.7,0.6,5.4,1.1,8.1c0.5,3.7,1.8,7.3,3.7,10.5c1.2,2,2.8,3.2,4.3,3.2 c2.4,0,3.8-2.3,4.3-7.4C71.6,21.6,71.2,21,70.5,20.9z"></path> <path class="st0" d="M59.2,23.3c-0.4-0.2-0.8-0.2-1.2,0c-1.8,0.6-3.6,1.1-5.4,1.4V14.2h4c1.3,0,1.4-0.8,1.4-1.1 c0-0.8-0.5-1.2-1.4-1.2H44.2c-1.3,0-1.4,0.8-1.4,1.1c0,0.8,0.5,1.2,1.4,1.2h4.4v11.3l-0.7,0.1c-1.5,0.2-3,0.5-4.7,0.8 C42,26.6,42,27.3,42,27.8c0.1,0.6,0.7,1.1,1.3,1h0.3c5.1-0.6,10.2-1.7,15.2-3.2c0.8-0.3,1.1-0.8,0.9-1.4 C59.7,23.8,59.5,23.5,59.2,23.3z"></path> <path class="st0" d="M63.3,2.9c0.9,0.5,1.8,1.1,2.6,1.7c0.4,0.3,0.8,0.5,1.3,0.5h0.2c0.3-0.1,0.6-0.2,0.8-0.5l0.2-0.3 c0.2-0.2,0.3-0.6,0.3-0.9c-0.1-0.3-0.3-0.7-0.6-0.8c-1.1-0.7-2.2-1.4-3.3-2c-0.6-0.4-1.5-0.2-1.9,0.4c0,0,0,0.1-0.1,0.1l0,0 c-0.2,0.3-0.3,0.6-0.2,0.9C62.8,2.4,63,2.7,63.3,2.9z"></path> <path class="st0" d="M104.1,12.1c1.3,0,1.4-0.8,1.4-1.1c0-0.8-0.5-1.2-1.4-1.2H87.6c-1.3,0-1.4,0.8-1.4,1.1c0,0.8,0.5,1.2,1.4,1.2 H104.1z"></path> <path class="st0" d="M108.7,18.3c0.9,0,1.4-0.4,1.4-1.1s-0.5-1.2-1.4-1.2H83c-0.9,0-1.4,0.4-1.4,1.1s0.5,1.2,1.4,1.2h7.6 c-1,2.9-2.2,5.7-3.6,8.5c-0.6,0-1.2,0.1-2.1,0.1l-1.2,0c-0.4,0-0.8,0.1-1.1,0.4c-0.2,0.2-0.3,0.5-0.2,0.8c0,0.7,0.6,1.2,1.3,1.2 c0.1,0,0.1,0,0.2,0c6.9-0.3,14-1,21.3-2.1c0.4,0.6,0.8,1.4,1.2,2.3c0.2,0.5,0.7,0.8,1.2,0.8c0.2,0,0.5-0.1,0.7-0.1l0.8-0.4 c0.3-0.1,0.6-0.4,0.8-0.7c0.1-0.3,0-0.7-0.2-0.9c-1.4-2.5-2.9-5.1-4.6-7.9c-0.4-0.6-1.2-0.9-1.8-0.5c0,0,0,0,0,0l-0.6,0.3 c-0.4,0.1-0.7,0.4-0.8,0.8c-0.1,0.2,0,0.5,0.1,0.6c0.1,0.1,0.1,0.2,0.2,0.3l1.1,1.8c0.2,0.4,0.5,0.9,0.8,1.4l0,0 c-4.2,0.6-8.5,1.1-12.8,1.4c1.3-2.8,2.5-5.5,3.5-8.2L108.7,18.3z"></path> <path class="st0" d="M110.4,9.4c-4.2-2.5-8.2-5.3-11.9-8.6c-0.4-0.4-1-0.6-1.5-0.6h-2.2c-0.6,0-1.1,0.2-1.6,0.6 C89.5,4.1,85.6,7,81.3,9.5l0,0c-0.6,0.2-0.8,0.9-0.6,1.5c0,0.1,0,0.1,0.1,0.1l0.2,0.3c0.1,0.3,0.4,0.6,0.8,0.7c0.1,0,0.2,0,0.3,0 c0.3,0,0.6-0.1,0.8-0.2c4.7-2.6,9-5.7,13-9.3c4,3.6,8.3,6.7,13,9.3c0.3,0.2,0.7,0.3,1.1,0.2c0.3-0.1,0.6-0.4,0.8-0.7l0.2-0.3 c0.3-0.6,0.1-1.3-0.4-1.6C110.4,9.5,110.4,9.5,110.4,9.4z"></path> <path class="st0" d="M133.7,21.5L133.7,21.5c0.4,0,0.7-0.2,0.9-0.5l0.4-0.4c0.5-0.4,0.5-1.1,0.1-1.6c0,0-0.1-0.1-0.1-0.1 c-1.6-1.7-3.1-3.2-4.7-4.6c1.3-1.8,2.4-3.7,3.2-5.8c0.2-0.4,0.3-0.8,0.3-1.3V6.9c0-0.8-0.5-1.2-1.4-1.2h-3.2v-4 c0-0.8-0.5-1.2-1.4-1.2h-1.1c-0.9,0-1.4,0.5-1.4,1.2v4h-3.2c-0.9,0-1.4,0.4-1.4,1.2s0.5,1.2,1.4,1.2h7.6c-1.8,4.4-4.9,8.1-8.9,10.6 c-0.6,0.3-0.9,1-0.6,1.6l0.1,0.3c0.1,0.4,0.4,0.7,0.7,0.8c0.4,0.1,0.8,0,1.2-0.2c1.1-0.7,2.2-1.5,3.3-2.3V29c0,0.8,0.5,1.2,1.4,1.2 h0.9c0.9,0,1.4-0.5,1.4-1.2V17.4c1.2,1.1,2.3,2.3,3.5,3.6C132.9,21.3,133.3,21.5,133.7,21.5z"></path> <path class="st0" d="M150.3,26.6H145V9.7h4.8c0.9,0,1.4-0.4,1.4-1.2s-0.5-1.2-1.4-1.2H145V2c0-0.8-0.5-1.2-1.4-1.2h-1.2 c-0.9,0-1.4,0.4-1.4,1.2v5.4h-5.1c-0.9,0-1.4,0.4-1.4,1.2s0.5,1.2,1.4,1.2h5.1v16.8h-7.3c-0.9,0-1.4,0.5-1.4,1.2s0.5,1.2,1.4,1.2 h16.6c0.9,0,1.4-0.5,1.4-1.2S151.1,26.6,150.3,26.6z"></path> <path class="st0" d="M182.4,0.4h-1.6c-1,0-1.5,0.5-1.5,1.3v10.3c0,9.2-3.4,12.9-11.4,16c-0.3,0.2-1.2,0.6-1,1.3 c0.1,0.4,0.3,0.7,0.6,0.9c0.2,0.1,0.4,0.2,0.6,0.1c0.2,0,0.4,0,0.6-0.1c10-3.2,15.1-8.2,15.1-18.3V1.8C183.9,1,183.4,0.4,182.4,0.4 z"></path> <path class="st0" d="M169.7,17V2.7c0-0.8-0.6-1.3-1.5-1.3h-1.4c-1,0-1.5,0.5-1.5,1.4V17c0,0.8,0.6,1.3,1.5,1.3h1.4 C169.1,18.3,169.7,17.8,169.7,17z"></path> <path class="st0" d="M221.7,3.3c-0.4-0.4-1-0.6-1.6-0.6h-24.5c-0.5,0-0.9,0.1-1.2,0.4c-0.2,0.2-0.3,0.5-0.3,0.9 c0,0.7,0.6,1.3,1.4,1.3c0,0,0.1,0,0.1,0h20.8c-3.9,12.4-5.1,16-16.9,22c-0.4,0.1-0.6,0.4-0.8,0.8c-0.1,0.3,0,0.7,0.1,1 c0.2,0.4,0.6,0.7,1.1,0.7c0.3,0,0.6-0.1,0.9-0.2c14.2-5.5,17.2-11.3,21.1-24.6C222.2,4.3,222.1,3.7,221.7,3.3L221.7,3.3z"></path> <path class="st0" d="M259.5,9.3c-0.6-0.5-1.5-0.5-2,0.1c0,0-0.1,0.1-0.1,0.1c-4.2,7.1-11.1,12.1-19.1,14V2.3c0-0.8-0.6-1.3-1.5-1.3 h-1.3c-0.4,0-0.8,0.1-1.2,0.4c-0.2,0.2-0.4,0.6-0.4,0.9v24c-0.1,0.6,0.2,1.2,0.7,1.5l0.8,0.7c0.3,0.3,0.7,0.5,1.2,0.5 c0.3,0,0.6-0.1,0.9-0.2c12.7-3.5,16.8-8,22.3-17.8C260.1,10.3,260.1,9.7,259.5,9.3z"></path> <path class="st0" d="M10.3,13.5c-0.8-1.6-1.4-3.3-1.9-5h1.8c0.9,0,1.4-0.4,1.4-1.2s-0.5-1.2-1.4-1.2H8.3V1.6c0-0.8-0.5-1.2-1.4-1.2 H6.1c-0.9,0-1.4,0.5-1.4,1.2v4.5H2c-0.9,0-1.4,0.4-1.4,1.1S1.1,8.5,2,8.5h2.5c-0.2,3.4-2.7,8.3-4.3,11.8c-0.3,0.6-0.3,1.3,0.1,1.5 c0.4,0.4,0.9,0.7,1.5,0.9c0.4,0,0.7-0.3,0.9-0.7c0.6-1.2,1.5-3.4,2-4.6V29c0,0.8,0.5,1.2,1.4,1.2h0.7c0.9,0,1.4-0.5,1.4-1.2V15.4 c0.3,0.8,1.4,2.9,1.7,3.7c0.2,0.4,0.4,0.6,0.7,0.7c0.4,0.1,0.8,0,1.1-0.2l0.2-0.1c0.6-0.3,0.8-1,0.5-1.6L10.3,13.5z"></path> <path class="st0" d="M13,15.7c-0.9,0-1.4-0.5-1.4-1.2s0.5-1.1,1.4-1.1h6.2V6.7h-2.9c-0.5,1.5-1.2,2.9-2,4.3 c-0.2,0.3-0.5,0.6-0.8,0.7c-0.4,0.1-0.8,0-1.1-0.3L12,11.1c-0.6-0.3-0.8-1-0.5-1.6c0,0,0-0.1,0.1-0.1c1.3-2.4,2.2-5,2.7-7.7 c0.1-0.7,0.7-1.2,1.4-1c0.1,0,0.1,0,0.2,0l0.5,0.1c0.4,0,0.8,0.2,1,0.5c0.2,0.3,0.2,0.6,0.1,0.9l-0.1,0.2c-0.1,0.5-0.3,1-0.5,1.7 h2.2V1.6c0-0.8,0.5-1.2,1.4-1.2h1c0.9,0,1.4,0.5,1.4,1.2v2.7h6.2c0.9,0,1.4,0.5,1.4,1.2s-0.5,1.1-1.4,1.1H23v6.7h7.1 c0.9,0,1.4,0.4,1.4,1.2s-0.5,1.2-1.4,1.2h-6.4c1.6,3.7,4.1,7,7.3,9.6c0.5,0.4,0.7,1.1,0.4,1.6l-0.2,0.4c-0.1,0.4-0.5,0.6-0.8,0.7 c-0.4,0.1-0.8,0-1.1-0.3c-2.4-1.9-4.5-4.2-6.2-6.8v8c0,0.8-0.5,1.2-1.4,1.2h-1c-0.9,0-1.4-0.5-1.4-1.2v-8.3 c-2.1,2.7-4.6,5.1-7.5,7.1c-0.3,0.3-0.8,0.4-1.2,0.3c-0.4-0.1-0.6-0.4-0.8-0.7L9.6,27c-0.3-0.6-0.1-1.3,0.4-1.6c0,0,0,0,0,0 c3.6-2.5,6.5-5.8,8.6-9.7L13,15.7z"></path> </g> </svg> 